<svg width="384" height="353" viewBox="0 0 384 353" fill="none" xmlns="http://www.w3.org/2000/svg">
<g filter="url(#filter0_i_33_695)">
<path d="M0 0.00676585C0 0.00676585 310.737 -0.00845731 313.263 0.00676585C315.789 0.021989 384 33.3911 384 36.4187C384 39.4462 384 353 384 353H0V0.00676585Z" fill="#131619"/>
</g>
<path d="M383.5 352.5H0.5V0.506742L0.891497 0.506723L3.49036 0.506599L13.3569 0.506141L48.5921 0.504625C77.7632 0.503436 116.684 0.502009 155.684 0.501057C233.686 0.499154 311.999 0.499157 313.26 0.506757C313.259 0.506749 313.26 0.507002 313.265 0.507805C313.284 0.511478 313.365 0.526657 313.539 0.581077C313.727 0.640184 313.979 0.730229 314.294 0.851497C314.922 1.0936 315.777 1.45095 316.828 1.90977C318.929 2.82682 321.795 4.14109 325.169 5.72917C331.914 8.90489 340.673 13.1702 349.355 17.5299C358.036 21.89 366.635 26.3421 373.061 29.8918C376.275 31.6675 378.938 33.213 380.794 34.406C381.724 35.0038 382.438 35.5051 382.916 35.8974C383.156 36.0946 383.322 36.2526 383.423 36.3717C383.463 36.4183 383.487 36.4521 383.5 36.4737V36.5037V36.5462V36.5956V36.652V36.7154V36.7856V36.8628V36.9468V37.0376V37.1352V37.2396V37.3508V37.4686V37.5932V37.7244V37.8623V38.0067V38.1577V38.3153V38.4794V38.65V38.8271V39.0106V39.2005V39.3968V39.5994V39.8084V40.0236V40.2452V40.4729V40.7069V40.9471V41.1935V41.4459V41.7045V41.9692V42.2399V42.5166V42.7993V43.0879V43.3826V43.6831V43.9895V44.3017V44.6198V44.9436V45.2733V45.6087V45.9497V46.2965V46.6489V47.007V47.3707V47.7399V48.1147V48.495V48.8807V49.272V49.6687V50.0707V50.4782V50.891V51.3091V51.7326V52.1613V52.5952V53.0343V53.4787V53.9281V54.3827V54.8424V55.3072V55.777V56.2519V56.7317V57.2165V57.7062V58.2008V58.7003V59.2046V59.7138V60.2277V60.7464V61.2699V61.798V62.3309V62.8683V63.4104V63.9572V64.5084V65.0643V65.6246V66.1894V66.7587V67.3324V67.9105V68.493V69.0798V69.6709V70.2663V70.866V71.47V72.0781V72.6904V73.3069V73.9274V74.5521V75.1809V75.8136V76.4504V77.0912V77.7359V78.3846V79.0371V79.6936V80.3538V81.0179V81.6858V82.3574V83.0328V83.7118V84.3946V85.081V85.771V86.4646V87.1618V87.8625V88.5667V89.2744V89.9855V90.7001V91.418V92.1394V92.8641V93.592V94.3233V95.0579V95.7956V96.5366V97.2807V98.028V98.7784V99.5319V100.288V101.048V101.811V102.576V103.345V104.116V104.89V105.668V106.448V107.231V108.016V108.805V109.596V110.39V111.186V111.985V112.787V113.591V114.398V115.208V116.02V116.834V117.651V118.47V119.292V120.116V120.942V121.771V122.602V123.435V124.271V125.108V125.948V126.79V127.634V128.48V129.328V130.179V131.031V131.885V132.741V133.599V134.459V135.321V136.185V137.05V137.917V138.786V139.657V140.53V141.404V142.279V143.157V144.036V144.916V145.798V146.682V147.567V148.453V149.341V150.23V151.121V152.013V152.906V153.8V154.696V155.593V156.491V157.391V158.291V159.193V160.095V160.999V161.904V162.809V163.716V164.624V165.532V166.442V167.352V168.263V169.175V170.088V171.001V171.915V172.83V173.746V174.662V175.579V176.496V177.414V178.332V179.251V180.171V181.09V182.011V182.931V183.852V184.774V185.695V186.617V187.539V188.462V189.384V190.307V191.23V192.152V193.076V193.999V194.922V195.845V196.768V197.691V198.614V199.536V200.459V201.381V202.304V203.226V204.147V205.069V205.99V206.911V207.831V208.751V209.671V210.59V211.509V212.427V213.344V214.262V215.178V216.094V217.009V217.924V218.837V219.751V220.663V221.574V222.485V223.395V224.304V225.212V226.119V227.026V227.931V228.835V229.738V230.64V231.541V232.441V233.34V234.238V235.134V236.029V236.923V237.816V238.707V239.597V240.485V241.373V242.258V243.143V244.025V244.907V245.786V246.665V247.541V248.416V249.289V250.161V251.031V251.899V252.765V253.63V254.493V255.354V256.213V257.07V257.925V258.778V259.63V260.479V261.326V262.171V263.014V263.855V264.694V265.531V266.365V267.197V268.027V268.855V269.68V270.503V271.323V272.141V272.957V273.77V274.581V275.389V276.195V276.998V277.798V278.596V279.391V280.184V280.974V281.761V282.545V283.327V284.105V284.881V285.654V286.424V287.191V287.955V288.716V289.475V290.23V290.982V291.731V292.476V293.219V293.958V294.695V295.428V296.157V296.884V297.607V298.326V299.043V299.756V300.465V301.171V301.874V302.573V303.268V303.96V304.648V305.333V306.014V306.691V307.365V308.034V308.7V309.363V310.021V310.676V311.326V311.973V312.616V313.255V313.89V314.52V315.147V315.77V316.389V317.003V317.613V318.219V318.821V319.419V320.012V320.601V321.186V321.766V322.342V322.914V323.481V324.044V324.602V325.155V325.705V326.249V326.789V327.324V327.855V328.381V328.902V329.418V329.93V330.437V330.939V331.436V331.928V332.415V332.898V333.375V333.848V334.315V334.777V335.234V335.687V336.134V336.575V337.012V337.443V337.87V338.29V338.706V339.116V339.521V339.921V340.315V340.703V341.086V341.464V341.836V342.203V342.564V342.919V343.269V343.613V343.951V344.284V344.61V344.931V345.247V345.556V345.86V346.157V346.449V346.735V347.015V347.288V347.556V347.818V348.074V348.323V348.566V348.804V349.035V349.259V349.478V349.69V349.896V350.096V350.289V350.476V350.656V350.83V350.997V351.158V351.313V351.461V351.602V351.737V351.865V351.986V352.1V352.208V352.309V352.404V352.491V352.5Z" stroke="url(#paint0_linear_33_695)"/>
<defs>
<filter id="filter0_i_33_695" x="0" y="0" width="384" height="357" filterUnits="userSpaceOnUse" color-interpolation-filters="sRGB">
<feFlood flood-opacity="0" result="BackgroundImageFix"/>
<feBlend mode="normal" in="SourceGraphic" in2="BackgroundImageFix" result="shape"/>
<feColorMatrix in="SourceAlpha" type="matrix" values="0 0 0 0 0 0 0 0 0 0 0 0 0 0 0 0 0 0 127 0" result="hardAlpha"/>
<feOffset dy="4"/>
<feGaussianBlur stdDeviation="3"/>
<feComposite in2="hardAlpha" operator="arithmetic" k2="-1" k3="1"/>
<feColorMatrix type="matrix" values="0 0 0 0 0.178472 0 0 0 0 0.833333 0 0 0 0 0.121528 0 0 0 0.61 0"/>
<feBlend mode="normal" in2="shape" result="effect1_innerShadow_33_695"/>
</filter>
<linearGradient id="paint0_linear_33_695" x1="0" y1="0" x2="384" y2="0" gradientUnits="userSpaceOnUse">
<stop stop-color="#82DBF7"/>
<stop offset="1" stop-color="#B6F09C"/>
</linearGradient>
</defs>
</svg>
