<svg width="61" height="50" viewBox="0 0 61 50" fill="none" xmlns="http://www.w3.org/2000/svg">
<g filter="url(#filter0_d_33_709)">
<path d="M37.1436 11.9175C36.6169 11.9175 36.1009 11.956 35.592 12.026C33.5997 9.88401 30.8154 8.66602 27.8162 8.66602C22.2835 8.66602 17.7399 12.859 17.3314 18.1615C14.6976 19.502 12.8916 22.1935 12.8916 25.2945C12.8916 29.729 16.586 33.334 21.1225 33.334H37.1436C43.1887 33.334 48.1086 28.5285 48.1086 22.624C48.1086 16.7195 43.1887 11.9175 37.1436 11.9175ZM37.1436 30.534H21.1225C18.1627 30.534 15.7583 28.182 15.7583 25.2945C15.7583 22.407 18.1663 20.055 21.1225 20.055C21.9144 20.055 22.5559 19.4285 22.5559 18.655C22.5559 17.8815 21.9144 17.255 21.1225 17.255C20.8645 17.255 20.6101 17.269 20.3593 17.29C21.1333 13.9615 24.1791 11.466 27.8162 11.466C29.5075 11.466 31.1057 11.998 32.4136 12.964C28.7264 14.693 26.1786 18.3715 26.1786 22.624V24.612L25.8704 24.3215C25.5965 24.0639 25.2291 23.9229 24.8489 23.9295C24.4687 23.936 24.1067 24.0896 23.8423 24.3565C23.5785 24.6241 23.4342 24.9829 23.4409 25.3542C23.4476 25.7256 23.6048 26.0792 23.8781 26.3375L26.6122 28.9135C26.8788 29.1666 27.2365 29.3074 27.6084 29.3055C27.9559 29.3055 28.3035 29.183 28.5794 28.9345L31.4461 26.3585C31.7151 26.1048 31.872 25.7584 31.8832 25.3934C31.8944 25.0283 31.7591 24.6733 31.5061 24.4043C31.2531 24.1353 30.9026 23.9735 30.5292 23.9535C30.1558 23.9334 29.7892 24.0567 29.5075 24.297L29.0453 24.7135V22.6205C29.0453 18.2595 32.6788 14.7105 37.1436 14.7105C41.6084 14.7105 45.2419 18.2595 45.2419 22.6205C45.2419 26.9815 41.6084 30.534 37.1436 30.534Z" fill="#B6F09C"/>
</g>
<defs>
<filter id="filter0_d_33_709" x="0.891602" y="0.666016" width="59.2168" height="48.668" filterUnits="userSpaceOnUse" color-interpolation-filters="sRGB">
<feFlood flood-opacity="0" result="BackgroundImageFix"/>
<feColorMatrix in="SourceAlpha" type="matrix" values="0 0 0 0 0 0 0 0 0 0 0 0 0 0 0 0 0 0 127 0" result="hardAlpha"/>
<feOffset dy="4"/>
<feGaussianBlur stdDeviation="6"/>
<feComposite in2="hardAlpha" operator="out"/>
<feColorMatrix type="matrix" values="0 0 0 0 0.713726 0 0 0 0 0.941176 0 0 0 0 0.611765 0 0 0 0.55 0"/>
<feBlend mode="normal" in2="BackgroundImageFix" result="effect1_dropShadow_33_709"/>
<feBlend mode="normal" in="SourceGraphic" in2="effect1_dropShadow_33_709" result="shape"/>
</filter>
</defs>
</svg>
